<svg width="24" height="26" viewBox="0 0 24 26" fill="none" xmlns="http://www.w3.org/2000/svg">
<path d="M20.8475 12.6833L10.3429 18.4846C9.52884 18.9342 9.12178 19.159 8.8367 19.4329C8.45735 19.7983 8.18085 20.257 8.03501 20.7631C7.88917 21.2691 7.87912 21.8047 8.00587 22.3159" stroke="white" stroke-width="1.5"/>
<path d="M6.0813 10.5569L13.0843 6.68936M7.77333 13.6207L12.1502 11.2035M15.0836 22.7207C12.608 24.0878 11.3694 24.7719 10.1759 24.4269C8.98193 24.0833 8.29787 22.8446 6.93071 20.369L3.06322 13.366C1.69606 10.8904 1.012 9.65175 1.357 8.45823C1.70064 7.26431 2.9393 6.58025 5.41487 5.21309L8.91639 3.27934C11.392 1.91218 12.6306 1.22812 13.8241 1.57312C15.0181 1.91676 15.7021 3.15542 17.0693 5.631M18.5851 20.7869C21.0607 19.4198 22.2994 18.7357 22.643 17.5418C22.988 16.3483 22.3039 15.1096 20.9368 12.634L19.003 9.13251" stroke="white" stroke-width="1.5" stroke-linecap="round"/>
</svg>
