<svg width="56" height="56" viewBox="0 0 56 56" fill="none" xmlns="http://www.w3.org/2000/svg">
<rect x="4" y="4" width="48" height="48" rx="24" fill="#FFB974"/>
<rect x="4" y="4" width="48" height="48" rx="24" stroke="#FED7B0" stroke-width="8"/>
<path d="M39 28C39 34.0751 34.0751 39 28 39C21.9249 39 17 34.0751 17 28C17 21.9249 21.9249 17 28 17C34.0751 17 39 21.9249 39 28ZM19.0676 28C19.0676 32.9332 23.0668 36.9324 28 36.9324C32.9332 36.9324 36.9324 32.9332 36.9324 28C36.9324 23.0668 32.9332 19.0676 28 19.0676C23.0668 19.0676 19.0676 23.0668 19.0676 28Z" fill="#EC7600"/>
<rect x="27" y="24" width="2" height="11" rx="1" fill="#EC7600"/>
<rect x="27" y="21" width="2" height="2" rx="1" fill="#EC7600"/>
</svg>
